<svg width="225" height="61" viewBox="0 0 225 61" fill="none" xmlns="http://www.w3.org/2000/svg">
<rect width="225" height="61" fill="white"/>
<path d="M11.5714 7.7395L11.6865 7.96456C12.5559 9.66686 13.0092 11.551 13.0092 13.4624C13.0092 15.3738 12.5559 17.258 11.6865 18.9603L5.13774 31.7813L5.02262 31.5563C4.15328 29.8539 3.70001 27.9698 3.70001 26.0584C3.70001 24.147 4.15328 22.2628 5.02262 20.5605L11.5714 7.7395Z" fill="url(#paint0_linear_225_2)"/>
<path d="M21.3365 22.9702L7.18513 50.6701L5.02311 46.4389C4.15377 44.7365 3.7005 42.8524 3.7005 40.941C3.7005 39.0296 4.15377 37.1454 5.02311 35.4431L19.1769 7.7395L21.3389 11.9712C22.2085 13.6741 22.6617 15.559 22.6613 17.471C22.6609 19.383 22.2069 21.2677 21.3365 22.9702Z" fill="url(#paint1_linear_225_2)"/>
<path d="M29.5656 27.7743L29.7907 28.2394C30.6082 29.9269 31.0219 31.7814 30.9991 33.6564C30.9763 35.5313 30.5176 37.3752 29.6592 39.0423L22.7356 52.4913L22.5484 52.1099C21.7191 50.4202 21.296 48.5601 21.3127 46.6779C21.3295 44.7957 21.7856 42.9434 22.6448 41.2686L29.5656 27.7743Z" fill="url(#paint2_linear_225_2)"/>
<path d="M18.8577 44.8979L19.1745 59.2556L15.3395 51.749L18.8577 44.8979Z" fill="url(#paint3_linear_225_2)"/>
<path d="M10.0973 45.007L10.963 56.4949L7.18512 50.67L10.0973 45.007Z" fill="url(#paint4_linear_225_2)"/>
<path d="M15.3395 15.2479L15.3732 0.299805L19.1745 7.74087L15.3395 15.2479Z" fill="url(#paint5_linear_225_2)"/>
<path d="M25.7039 20.539L25.0173 19.1998L14.6752 39.4469C13.8059 41.1493 13.3526 43.0334 13.3526 44.9448C13.3526 46.8562 13.8059 48.7404 14.6752 50.4427L15.3416 51.7467L25.7015 31.5712C26.5773 29.8644 27.0343 27.9737 27.0347 26.0554C27.0352 24.137 26.579 22.2461 25.7039 20.539Z" fill="url(#paint6_linear_225_2)"/>
<path fill-rule="evenodd" clip-rule="evenodd" d="M16.3463 44.3492L20.2486 36.6834L19.4145 36.2589L15.3613 44.2211L18.623 59.3566L19.538 59.1595L16.3463 44.3492Z" fill="white"/>
<path fill-rule="evenodd" clip-rule="evenodd" d="M20.44 34.8334C20.0782 34.8334 19.7849 35.1267 19.7849 35.4885C19.7849 35.8502 20.0782 36.1435 20.44 36.1435C20.8019 36.1435 21.0952 35.8502 21.0952 35.4885C21.0952 35.1267 20.8019 34.8334 20.44 34.8334ZM18.9893 35.4885C18.9893 34.6874 19.6388 34.038 20.44 34.038C21.2412 34.038 21.8907 34.6874 21.8907 35.4885C21.8907 36.2896 21.2412 36.939 20.44 36.939C19.6388 36.939 18.9893 36.2896 18.9893 35.4885Z" fill="white"/>
<path fill-rule="evenodd" clip-rule="evenodd" d="M7.13634 41.7631L13.461 29.6695L12.6316 29.2358L6.13391 41.6603L10.3968 56.6256L11.2969 56.3693L7.13634 41.7631Z" fill="white"/>
<path fill-rule="evenodd" clip-rule="evenodd" d="M13.7243 27.7681C13.272 27.7681 12.9054 28.1347 12.9054 28.5869C12.9054 29.0391 13.272 29.4057 13.7243 29.4057C14.1766 29.4057 14.5433 29.0391 14.5433 28.5869C14.5433 28.1347 14.1766 27.7681 13.7243 27.7681ZM11.9694 28.5869C11.9694 27.6179 12.7551 26.8323 13.7243 26.8323C14.6935 26.8323 15.4792 27.6179 15.4792 28.5869C15.4792 29.556 14.6935 30.3416 13.7243 30.3416C12.7551 30.3416 11.9694 29.556 11.9694 28.5869Z" fill="white"/>
<path fill-rule="evenodd" clip-rule="evenodd" d="M23.7985 45.8169L25.4956 42.2398L24.6499 41.8387L22.884 45.5609L22.1738 52.4254L23.1048 52.5217L23.7985 45.8169Z" fill="white"/>
<path fill-rule="evenodd" clip-rule="evenodd" d="M25.5407 40.7056C25.2434 40.7056 25.0025 40.9465 25.0025 41.2437C25.0025 41.5409 25.2434 41.7818 25.5407 41.7818C25.8379 41.7818 26.0788 41.5409 26.0788 41.2437C26.0788 40.9465 25.8379 40.7056 25.5407 40.7056ZM24.3005 41.2437C24.3005 40.5589 24.8558 40.0038 25.5407 40.0038C26.2256 40.0038 26.7808 40.5589 26.7808 41.2437C26.7808 41.9285 26.2256 42.4837 25.5407 42.4837C24.8558 42.4837 24.3005 41.9285 24.3005 41.2437Z" fill="white"/>
<path d="M34.6554 27.3745H48.8344V29.3859H43.5823V38.9091C43.5823 39.4312 43.5092 39.7804 43.3629 39.9566C43.2168 40.1328 42.8791 40.2213 42.35 40.2218H39.9132V29.3859H34.6579L34.6554 27.3745Z" fill="#838383"/>
<path d="M50.6422 40.2216V28.6316C50.6422 28.1282 50.7199 27.7932 50.8753 27.6264C51.0307 27.4594 51.3638 27.3766 51.8744 27.3777H63.8635V29.3609H54.2787V32.6005H63.0382V34.5837H54.2828V38.2425H63.8676V40.2249L50.6422 40.2216Z" fill="#838383"/>
<path d="M65.23 33.797C65.23 32.4943 65.3716 31.4144 65.6548 30.5575C65.938 29.7005 66.4078 29.0304 67.0641 28.5469C67.7215 28.063 68.588 27.7232 69.6634 27.5276C70.7388 27.332 72.0618 27.2343 73.6322 27.2343C74.3437 27.2343 75.0189 27.2574 75.6579 27.3038C76.2969 27.3502 76.963 27.4292 77.6562 27.5408C78.3498 27.6348 78.8015 27.7978 79.011 28.0298C79.2206 28.2618 79.3256 28.5934 79.3262 29.0243V30.1688C78.7712 29.9615 78.1985 29.8072 77.6155 29.708C76.9484 29.5871 76.2731 29.494 75.5898 29.4287C74.9063 29.3635 74.2995 29.331 73.7694 29.331C72.6193 29.331 71.6884 29.4429 70.9769 29.6666C70.2653 29.8904 69.7549 30.3279 69.4457 30.9793C69.1354 31.6307 68.9802 32.5802 68.9802 33.8277C68.9802 35.0388 69.1354 35.9651 69.4457 36.6065C69.756 37.2479 70.2853 37.6899 71.0337 37.9325C71.7821 38.1745 72.7858 38.2955 74.0448 38.2955C74.5371 38.2955 75.0785 38.2679 75.6693 38.2126C76.2601 38.1574 76.8623 38.0689 77.4758 37.9474C78.0867 37.8264 78.7026 37.6913 79.3238 37.5422V38.6311C79.3336 38.9765 79.2109 39.3123 78.9818 39.5668C78.7527 39.8188 78.2827 39.9911 77.5717 40.0839C76.9148 40.1944 76.2487 40.2734 75.5735 40.3209C74.8982 40.3685 74.2048 40.3917 73.4932 40.3906C71.905 40.3906 70.5783 40.2931 69.5131 40.098C68.448 39.903 67.5994 39.5632 66.9674 39.0786C66.3382 38.5946 65.8912 37.9242 65.6264 37.0673C65.3616 36.2104 65.2295 35.1203 65.23 33.797Z" fill="#838383"/>
<path d="M81.4343 40.2218V28.4933C81.4343 28.0093 81.5256 27.7022 81.7081 27.5718C81.8905 27.4414 82.2192 27.3762 82.6941 27.3762H85.0757V32.5707H92.0012V27.3745H95.6681V38.9654C95.6681 39.4677 95.5915 39.8027 95.4364 39.9707C95.2812 40.1386 94.929 40.2215 94.3807 40.2193H91.9987V34.5499H85.0733V40.2193L81.4343 40.2218Z" fill="#838383"/>
<path d="M98.7898 40.2216V28.799C98.7898 28.2028 98.8637 27.8161 99.0097 27.6388C99.1557 27.4614 99.5207 27.373 100.105 27.3735H103.498L110.233 36.4226L110.369 36.8693V27.3744H113.05C113.019 27.4741 113 27.5773 112.995 27.6819C112.976 27.8674 112.967 28.0539 112.967 28.2404V38.9652C112.967 39.542 112.867 39.8956 112.666 40.026C112.465 40.157 112.073 40.2216 111.489 40.2216H108.369L101.525 31.0051L101.416 30.5302V40.2216H98.7898Z" fill="#838383"/>
<path d="M122.989 40.4171C121.655 40.4171 120.51 40.324 119.553 40.1378C118.596 39.9517 117.803 39.6165 117.174 39.1326C116.545 38.6486 116.079 37.9737 115.778 37.1079C115.477 36.2422 115.326 35.1389 115.326 33.7979C115.326 32.4206 115.486 31.2987 115.805 30.4324C116.124 29.5661 116.608 28.8959 117.256 28.4218C117.907 27.9467 118.719 27.6152 119.693 27.4274C120.668 27.2395 121.813 27.1464 123.129 27.1481C124.443 27.1481 125.58 27.2412 126.54 27.4274C127.5 27.6136 128.294 27.9486 128.922 28.4326C129.552 28.9166 130.017 29.5915 130.317 30.4573C130.617 31.323 130.768 32.4355 130.769 33.7946C130.769 35.1549 130.609 36.2673 130.291 37.132C129.971 37.9966 129.492 38.6718 128.854 39.1575C128.215 39.6415 127.406 39.9729 126.43 40.1519C125.454 40.3309 124.307 40.4194 122.989 40.4171ZM123.043 38.4339C123.628 38.4422 124.211 38.3813 124.781 38.2525C125.252 38.1494 125.684 37.9123 126.027 37.5687C126.356 37.2328 126.603 36.7632 126.766 36.1599C126.929 35.5565 127.01 34.7698 127.009 33.7996C127.009 32.8133 126.928 32.0175 126.766 31.412C126.603 30.8064 126.357 30.3368 126.027 30.0031C125.683 29.6598 125.251 29.4225 124.781 29.3185C124.211 29.1905 123.628 29.1296 123.043 29.1371C122.45 29.1288 121.858 29.1897 121.277 29.3185C120.81 29.4206 120.383 29.6583 120.046 30.0031C119.726 30.3379 119.484 30.8075 119.32 31.412C119.157 32.0164 119.076 32.8122 119.077 33.7996C119.077 34.7686 119.158 35.5554 119.32 36.1599C119.483 36.7642 119.724 37.2339 120.046 37.5687C120.382 37.9139 120.81 38.1515 121.277 38.2525C121.857 38.3835 122.45 38.4458 123.043 38.4381V38.4339Z" fill="#838383"/>
<path d="M136.676 27.3745V38.2394H144.86V40.2218H133.035V28.6873C133.031 28.4393 133.049 28.1916 133.09 27.9472C133.104 27.8563 133.138 27.77 133.19 27.6949C133.243 27.6198 133.312 27.5581 133.391 27.5146C133.553 27.4218 133.845 27.3751 134.267 27.3745H136.676Z" fill="#838383"/>
<path d="M153.239 40.4172C151.907 40.4172 150.762 40.3241 149.804 40.138C148.846 39.9518 148.052 39.6167 147.422 39.1327C146.793 38.6487 146.327 37.9738 146.026 37.1081C145.724 36.2423 145.573 35.1387 145.571 33.7972C145.571 32.4198 145.731 31.298 146.05 30.4317C146.37 29.5653 146.854 28.8952 147.501 28.4212C148.151 27.946 148.964 27.6145 149.938 27.4266C150.913 27.2388 152.058 27.1457 153.373 27.1474C154.686 27.1474 155.824 27.2405 156.785 27.4266C157.745 27.6128 158.539 27.948 159.166 28.4319C159.795 28.9159 160.261 29.5908 160.562 30.4565C160.863 31.3223 161.013 32.4347 161.013 33.7939C161.013 35.1542 160.854 36.2667 160.534 37.1312C160.215 37.9959 159.736 38.6711 159.097 39.1567C158.459 39.6407 157.651 39.9722 156.675 40.1513C155.699 40.3303 154.554 40.4189 153.239 40.4172ZM153.294 38.4341C153.879 38.4423 154.462 38.3814 155.032 38.2526C155.503 38.1494 155.935 37.9123 156.278 37.5689C156.607 37.2329 156.854 36.7633 157.017 36.16C157.18 35.5567 157.261 34.77 157.26 33.7997C157.26 32.8135 157.179 32.0177 157.017 31.4121C156.854 30.8066 156.608 30.3369 156.278 30.0033C155.934 29.6601 155.502 29.4228 155.032 29.3187C154.462 29.1906 153.879 29.1297 153.294 29.1372C152.701 29.1288 152.109 29.1898 151.528 29.3187C151.062 29.4205 150.634 29.6582 150.297 30.0033C149.977 30.338 149.735 30.8077 149.572 31.4121C149.408 32.0166 149.327 32.8124 149.328 33.7997C149.328 34.7688 149.409 35.5556 149.572 36.16C149.735 36.7644 149.976 37.234 150.297 37.5689C150.633 37.9142 151.061 38.1518 151.528 38.2526C152.107 38.3835 152.698 38.4457 153.291 38.4382L153.294 38.4341Z" fill="#838383"/>
<path d="M170.044 40.3892C168.657 40.3892 167.485 40.2961 166.527 40.1099C165.568 39.9237 164.784 39.5839 164.171 39.0905C163.559 38.5977 163.117 37.9276 162.844 37.08C162.571 36.2325 162.433 35.1573 162.432 33.8545C162.432 32.4208 162.615 31.2664 162.98 30.3912C163.345 29.5161 163.865 28.8503 164.54 28.3939C165.215 27.9381 166.027 27.6309 166.977 27.4724C168.037 27.3062 169.108 27.227 170.18 27.2353C171.348 27.2353 172.402 27.2585 173.343 27.305C174.282 27.3513 175.017 27.4304 175.545 27.542C175.984 27.6166 176.307 27.7376 176.52 27.9058C176.709 28.0427 176.847 28.2389 176.917 28.4644C176.97 28.6644 176.998 28.8709 176.998 29.0785V30C176.889 29.8697 176.638 29.7592 176.245 29.6686C175.799 29.5659 175.346 29.4912 174.89 29.4448C174.379 29.3895 173.854 29.3431 173.316 29.3055C172.779 29.268 172.281 29.2403 171.824 29.2227C171.368 29.2044 171.012 29.1953 170.757 29.1953C169.625 29.1953 168.726 29.3211 168.06 29.5724C167.739 29.688 167.446 29.8708 167.198 30.1088C166.951 30.3468 166.756 30.6349 166.623 30.9547C166.331 31.6249 166.185 32.5918 166.185 33.8554C166.185 35.0471 166.318 35.9733 166.582 36.6341C166.848 37.2949 167.28 37.7557 167.882 38.0165C168.485 38.2773 169.279 38.4077 170.264 38.4077C171.175 38.4077 171.896 38.3248 172.426 38.159C172.957 37.9933 173.34 37.6955 173.576 37.2657C173.813 36.8374 173.941 36.251 173.959 35.5063V34.6684H169.114C169.104 34.2658 169.136 33.8631 169.21 33.4675C169.236 33.337 169.291 33.2146 169.372 33.1102C169.454 33.0058 169.557 32.9224 169.675 32.8667C169.922 32.7457 170.31 32.6852 170.839 32.6852H177.491V35.4507C177.491 36.3628 177.382 37.1364 177.166 37.7712C176.955 38.3928 176.551 38.9271 176.015 39.2927C175.468 39.6745 174.706 39.9538 173.729 40.1306C172.753 40.3074 171.525 40.3936 170.044 40.3892Z" fill="#838383"/>
<path d="M179.679 40.2215V28.6315C179.675 28.3974 179.693 28.1634 179.733 27.9329C179.751 27.8435 179.788 27.7596 179.843 27.6877C179.898 27.6157 179.968 27.5578 180.048 27.5185C180.221 27.4257 180.508 27.379 180.91 27.3784H183.319V40.2241L179.679 40.2215Z" fill="#838383"/>
<path d="M186.44 40.2216V28.6316C186.44 28.1282 186.518 27.7932 186.673 27.6264C186.828 27.4594 187.161 27.3766 187.672 27.3777H199.662V29.3609H190.077V32.6005H198.84V34.5837H190.081V38.2425H199.666V40.2249L186.44 40.2216Z" fill="#838383"/>
<path d="M201.221 37.5687C201.66 37.7897 202.216 37.9526 202.892 38.0576C203.59 38.1621 204.293 38.227 204.999 38.2524C205.728 38.2806 206.376 38.2946 206.943 38.2946H207.696C207.996 38.2946 208.247 38.2852 208.447 38.2664C208.957 38.2591 209.462 38.189 209.954 38.0576C210.373 37.9366 210.692 37.7363 210.911 37.4568C211.131 37.1772 211.239 36.7863 211.237 36.2841C211.237 35.6691 211.072 35.2642 210.743 35.0691C210.418 34.8735 209.912 34.7758 209.239 34.7758H206.062C205.497 34.7758 204.931 34.7481 204.365 34.6929C203.834 34.6449 203.313 34.513 202.822 34.3017C202.359 34.0982 201.971 33.7501 201.714 33.3072C201.439 32.8509 201.303 32.2131 201.303 31.3936C201.303 30.4257 201.467 29.6671 201.796 29.1179C202.123 28.5691 202.611 28.1392 203.192 27.8888C203.793 27.6187 204.505 27.4464 205.326 27.3718C206.148 27.2971 207.041 27.2599 208.007 27.2599C208.591 27.2599 209.229 27.2693 209.923 27.288C210.616 27.3068 211.269 27.3441 211.88 27.3999C212.491 27.4552 212.961 27.5381 213.29 27.6486C213.801 27.6866 214.193 27.8301 214.467 28.082C214.598 28.1976 214.703 28.3414 214.774 28.5031C214.846 28.6648 214.881 28.8405 214.878 29.0176V30.0229C214.732 29.8737 214.462 29.7527 214.07 29.6599C213.628 29.5586 213.18 29.4886 212.729 29.4502C212.227 29.4039 211.73 29.3712 211.237 29.3525C210.745 29.3337 210.325 29.3243 209.978 29.3243H207.815C207.324 29.3174 206.834 29.3643 206.353 29.4643C205.943 29.5571 205.622 29.7295 205.395 29.9806C205.169 30.2318 205.052 30.6088 205.052 31.1119C205.052 31.503 205.131 31.8056 205.286 32.0194C205.456 32.2431 205.698 32.397 205.969 32.4528C206.343 32.5346 206.725 32.5719 207.107 32.5638H210.83C211.584 32.5531 212.336 32.6282 213.075 32.7876C213.674 32.911 214.207 33.2601 214.565 33.7655C214.921 34.2678 215.099 35.0496 215.099 36.1109C215.099 37.117 214.894 37.9181 214.484 38.5142C214.07 39.1128 213.481 39.5625 212.801 39.7988C212.088 40.0596 211.258 40.2179 210.31 40.2737C209.598 40.329 208.914 40.3565 208.256 40.3565H206.176C205.555 40.3372 204.948 40.3096 204.356 40.2737C203.821 40.2443 203.29 40.1695 202.767 40.0499C202.37 39.9663 201.99 39.8101 201.646 39.5891C201.513 39.5058 201.404 39.3886 201.329 39.249C201.256 39.1094 201.218 38.9524 201.221 38.7935V37.5687Z" fill="#838383"/>
<path d="M34.6554 16.8019C35.3333 17.1073 36.2026 17.3359 37.2629 17.4878C38.3569 17.6435 39.4589 17.7337 40.5633 17.758C41.7041 17.7863 42.7091 17.8001 43.5782 17.7995H44.821C45.323 17.7995 45.7372 17.7857 46.0637 17.758C46.7971 17.758 47.4218 17.6818 47.9379 17.5293C48.4539 17.3769 48.841 17.1345 49.0991 16.8019C49.3566 16.4693 49.4857 15.9982 49.4861 15.3885C49.4861 14.6679 49.2824 14.1899 48.875 13.9543C48.4676 13.7188 47.8428 13.601 47.0008 13.601H42.1523C41.283 13.601 40.407 13.5594 39.5243 13.4763C38.7028 13.4092 37.8978 13.2056 37.1407 12.8735C36.433 12.5544 35.8415 12.0163 35.4499 11.3354C35.0278 10.6287 34.8172 9.65179 34.8183 8.4047C34.8183 6.90814 35.0696 5.73725 35.5721 4.89203C36.0683 4.05195 36.8089 3.39081 37.6908 3.00051C38.6002 2.58481 39.6867 2.32153 40.9503 2.21068C42.2139 2.09982 43.606 2.04443 45.1265 2.04443C46.05 2.04443 47.0483 2.05826 48.1212 2.08599C49.1942 2.11373 50.1992 2.15529 51.1363 2.21068C52.0734 2.26615 52.8 2.3631 53.3161 2.50169C54.2396 2.55717 54.9527 2.80653 55.4551 3.24997C55.6951 3.45152 55.8875 3.70574 56.0181 3.99358C56.1485 4.28151 56.2138 4.59569 56.2089 4.91277V6.65878C55.9916 6.46527 55.591 6.30593 55.007 6.18069C54.3346 6.04424 53.654 5.95402 52.9698 5.9105C52.1956 5.85502 51.435 5.81346 50.6881 5.78573C49.9411 5.75808 49.2824 5.74417 48.712 5.74417H45.0451C44.422 5.73249 43.7999 5.79525 43.1912 5.93123C42.6876 6.05592 42.3152 6.27128 42.0708 6.57556C41.8263 6.87984 41.7041 7.31058 41.7041 7.86431C41.7041 8.30766 41.7856 8.66106 41.9485 8.92434C42.1115 9.18762 42.3696 9.37469 42.7226 9.48555C43.0747 9.59688 43.5375 9.65179 44.108 9.65179H50.0566C51.3604 9.65179 52.5012 9.76265 53.4791 9.98437C54.4569 10.2061 55.2175 10.7049 55.7607 11.4809C56.304 12.2568 56.5756 13.4486 56.5756 15.0559C56.5756 16.5807 56.2768 17.7932 55.6792 18.6933C55.0782 19.5964 54.2168 20.2865 53.2142 20.668C52.1679 21.0837 50.9524 21.333 49.5677 21.4161C48.2638 21.4994 47.0279 21.5409 45.8599 21.5409H42.1523C41.0657 21.5137 40.0675 21.4653 39.1576 21.3954C38.3537 21.3436 37.5561 21.2183 36.774 21.0213C36.0945 20.8417 35.5716 20.5922 35.2054 20.273C34.8393 19.9538 34.6559 19.5311 34.6554 19.0051V16.8019Z" fill="#444444"/>
<path d="M59.347 11.7691C59.347 9.82908 59.5643 8.22867 59.9989 6.96766C60.4335 5.70674 61.1669 4.71591 62.1991 3.99537C63.2313 3.27484 64.6098 2.7621 66.3346 2.45726C68.0594 2.15242 70.1985 2 72.7517 2C73.8383 2 74.8637 2.03465 75.828 2.10395C76.7922 2.17325 77.804 2.29102 78.8634 2.45726C80.0042 2.59642 80.7511 2.87352 81.1043 3.28866C81.4574 3.7038 81.6339 4.27201 81.6339 4.99311V7.11316C80.741 6.78021 79.8206 6.52982 78.8838 6.36489C77.8374 6.17147 76.7984 6.02596 75.7668 5.92836C74.7352 5.83086 73.8252 5.78239 73.037 5.78295C71.4333 5.78295 70.1227 5.92145 69.1052 6.19864C68.0877 6.47575 67.3475 7.04387 66.8847 7.903C66.4218 8.7627 66.1909 10.0652 66.192 11.8106C66.192 13.4734 66.4229 14.7343 66.8847 15.5935C67.3464 16.4526 68.1205 17.0346 69.207 17.3394C70.2936 17.6448 71.7332 17.7973 73.5259 17.7968C74.336 17.7939 75.1454 17.7453 75.9502 17.6512C76.8058 17.5548 77.7022 17.4232 78.6393 17.2563C79.5763 17.0895 80.5746 16.8816 81.6339 16.6328V18.5866C81.6339 19.2517 81.4438 19.799 81.0636 20.2286C80.6832 20.6582 79.9091 20.9561 78.7412 21.1223C77.7221 21.287 76.6953 21.3981 75.6649 21.4549C74.6464 21.5103 73.5938 21.538 72.5073 21.538C69.9258 21.538 67.7867 21.3925 66.0901 21.1015C64.3936 20.8106 63.049 20.3048 62.0565 19.5842C61.064 18.8637 60.3645 17.873 59.9582 16.612C59.5518 15.351 59.3481 13.7367 59.347 11.7691Z" fill="#444444"/>
<path d="M85.1779 21.3302V4.3696C85.1714 3.97211 85.2055 3.57509 85.2797 3.18479C85.3137 3.02705 85.3828 2.8793 85.4817 2.75312C85.5806 2.62695 85.7067 2.5258 85.8502 2.45734C86.162 2.2911 86.6713 2.20789 87.378 2.20789H91.8599V21.3302H85.1779Z" fill="#444444"/>
<path d="M96.6262 21.3302V4.74203C96.6153 4.24106 96.65 3.74018 96.7279 3.24547C96.7526 3.07923 96.8157 2.9213 96.9109 2.7841C97.007 2.647 97.1325 2.53455 97.278 2.45563C97.5764 2.28939 98.0927 2.20618 98.8259 2.20618H117.691V5.78123H103.349V9.77198H116.387V13.3055H103.349V21.3285L96.6262 21.3302Z" fill="#444444"/>
<path d="M127.715 2.20789V17.7552H139.735V21.3302H121.033V4.45272C121.026 4.03459 121.06 3.61674 121.135 3.20562C121.165 3.04638 121.23 2.8962 121.325 2.76648C121.421 2.63685 121.544 2.53112 121.686 2.45734C121.983 2.2911 122.499 2.20789 123.234 2.20789H127.715Z" fill="#444444"/>
<path d="M140.263 21.3301L146.741 5.45031C147.175 4.36946 147.8 3.53115 148.615 2.93529C149.43 2.33943 150.707 2.0415 152.445 2.0415C153.885 2.0415 155.053 2.31861 155.949 2.8729C156.845 3.4272 157.524 4.28634 157.987 5.45031L164.505 21.3301H157.253L155.5 17.0484H147.026L145.397 21.3301H140.263ZM148.086 14.4295H154.278L152.079 8.60957C152.002 8.3999 151.907 8.19807 151.793 8.0068C151.685 7.8273 151.494 7.73661 151.223 7.73661C150.924 7.73661 150.713 7.8273 150.591 8.0068C150.466 8.19424 150.362 8.39663 150.286 8.60957L148.086 14.4295Z" fill="#444444"/>
<path d="M179.13 14.8854C178.071 14.8854 177.134 14.8923 176.319 14.9062C175.505 14.92 174.662 14.9269 173.794 14.9269V21.3287H167.111V4.74225C167.111 3.93905 167.288 3.31555 167.641 2.87155C167.994 2.42756 168.714 2.20593 169.8 2.2064C170.208 2.2064 170.819 2.19949 171.633 2.18566C172.449 2.17184 173.385 2.16484 174.445 2.16484C175.505 2.16484 176.598 2.15793 177.725 2.1441C178.852 2.13019 179.932 2.13019 180.964 2.1441C181.996 2.15849 182.9 2.17231 183.673 2.18566C184.448 2.19893 185.012 2.21975 185.364 2.24805C186.831 2.38712 187.932 2.83747 188.665 3.599C189.398 4.36064 189.765 5.60082 189.765 7.31956C189.765 8.8715 189.649 10.0008 189.418 10.7075C189.188 11.4143 188.814 11.9616 188.298 12.3496C188.063 12.5083 187.8 12.621 187.524 12.6822C187.164 12.7693 186.794 12.8112 186.424 12.8069V12.9731H187.056C187.253 12.9709 187.45 12.9848 187.646 13.0148C188.679 13.2093 189.297 13.6111 189.5 14.2203C189.705 14.8361 189.808 15.4822 189.806 16.1325V19.7906C189.806 20.3178 189.86 20.6988 189.968 20.9339C190.024 21.0718 190.092 21.2041 190.173 21.3287H185.201C184.495 21.3287 183.945 21.2179 183.552 20.9962C183.157 20.7745 182.96 20.3034 182.96 19.5828V16.8392C182.96 15.9806 182.777 15.4402 182.41 15.2179C182.044 14.9957 181.399 14.8848 180.475 14.8854H179.13ZM173.794 11.6429C174.091 11.6429 174.546 11.6498 175.159 11.6637C175.77 11.6775 176.442 11.6845 177.175 11.6845H180.516C181.151 11.6909 181.766 11.462 182.247 11.0401C182.75 10.6112 183.001 9.8005 183.002 8.60822C183.002 7.77682 182.859 7.12558 182.573 6.6545C182.288 6.18333 181.82 5.92005 181.168 5.86466C180.664 5.77061 180.152 5.72887 179.64 5.73989H177.644C176.951 5.73989 176.319 5.74689 175.749 5.76072C175.179 5.77454 174.758 5.78145 174.486 5.78145C174.352 5.80526 174.222 5.8472 174.099 5.90622C173.895 5.98935 173.794 6.19715 173.794 6.52973V11.6429Z" fill="#444444"/>
<path d="M193.962 21.3302V4.3696C193.962 3.48272 194.111 2.90078 194.411 2.62358C194.709 2.34648 195.293 2.20789 196.163 2.20789H214.986V5.78294H200.644V9.77369H213.682V13.3055H200.644V17.7536H214.986V21.3286L193.962 21.3302Z" fill="#444444"/>
<path d="M34.9657 54.2623H37.9957L37.875 54.9236H34L35.4848 46.5199H36.3298L34.9657 54.2623Z" fill="black"/>
<path d="M43.1129 48.2631C43.6682 48.2631 44.143 48.3713 44.5373 48.5877C44.9317 48.7961 45.2294 49.0847 45.4306 49.4533C45.6399 49.822 45.7445 50.2428 45.7445 50.7157C45.7445 50.9321 45.7284 51.1245 45.6962 51.2928C45.6479 51.5332 45.5996 51.7496 45.5513 51.942H40.0829C40.0587 52.0943 40.0467 52.2385 40.0467 52.3748C40.0467 52.9919 40.2318 53.4688 40.602 53.8055C40.9802 54.1421 41.4591 54.3104 42.0385 54.3104C42.5938 54.3104 43.0807 54.1782 43.4992 53.9137C43.9176 53.6492 44.2235 53.2925 44.4166 52.8437H45.322C45.0484 53.4849 44.6098 54.0098 44.0062 54.4186C43.4106 54.8194 42.7145 55.0197 41.9178 55.0197C41.0969 55.0197 40.437 54.7873 39.938 54.3224C39.4471 53.8495 39.2017 53.2084 39.2017 52.3988C39.2017 52.1584 39.2258 51.9059 39.2741 51.6414C39.3948 50.9602 39.6362 50.363 39.9984 49.8501C40.3686 49.3371 40.8233 48.9444 41.3625 48.6719C41.9017 48.3994 42.4851 48.2631 43.1129 48.2631ZM44.827 51.3168C44.8673 51.0924 44.8874 50.9041 44.8874 50.7518C44.8874 50.1827 44.7063 49.7459 44.3442 49.4413C43.982 49.1368 43.5193 48.9845 42.9559 48.9845C42.5455 48.9845 42.1512 49.0726 41.7729 49.249C41.3947 49.4253 41.0647 49.6898 40.783 50.0424C40.5014 50.3951 40.3082 50.8199 40.2036 51.3168H44.827Z" fill="black"/>
<path d="M47.9907 53.1442C47.9665 53.2885 47.9544 53.4127 47.9544 53.5169C47.9544 53.7734 48.0229 53.9537 48.1597 54.0579C48.3045 54.1541 48.5379 54.2022 48.8598 54.2022H49.6324L49.4996 54.9236H48.5942C48.0953 54.9236 47.7211 54.8274 47.4716 54.635C47.2221 54.4427 47.0974 54.1261 47.0974 53.6852C47.0974 53.5089 47.1135 53.3286 47.1456 53.1442L47.8699 49.0686H46.9525L47.0853 48.3593H48.0027L48.2925 46.7122H49.1375L48.8477 48.3593H50.6706L50.5378 49.0686H48.715L47.9907 53.1442Z" fill="black"/>
<path d="M52.6195 46.5199H53.5973L52.0763 49.1167H51.4606L52.6195 46.5199Z" fill="black"/>
<path d="M55.4716 55.0197C54.8036 55.0197 54.2604 54.8674 53.8419 54.5629C53.4234 54.2503 53.2142 53.8255 53.2142 53.2885C53.2142 53.1923 53.2182 53.1202 53.2263 53.0721H54.0471C54.0149 53.4568 54.1276 53.7654 54.3851 53.9978C54.6427 54.2303 55.0209 54.3465 55.5199 54.3465C56.0269 54.3465 56.4333 54.2423 56.7391 54.0339C57.0449 53.8175 57.1978 53.533 57.1978 53.1803C57.1978 52.9719 57.1335 52.7956 57.0047 52.6513C56.8759 52.507 56.715 52.3908 56.5218 52.3027C56.3367 52.2065 56.0752 52.0983 55.7372 51.9781C55.3187 51.8258 54.9807 51.6855 54.7232 51.5573C54.4737 51.421 54.2564 51.2367 54.0713 51.0042C53.8942 50.7638 53.8057 50.4632 53.8057 50.1026C53.8057 49.7419 53.9103 49.4213 54.1196 49.1408C54.3288 48.8602 54.6145 48.6438 54.9767 48.4916C55.3469 48.3393 55.7653 48.2631 56.2321 48.2631C56.884 48.2631 57.4151 48.4234 57.8256 48.744C58.244 49.0646 58.4533 49.4894 58.4533 50.0184C58.4533 50.1306 58.4493 50.2148 58.4412 50.2709H57.6445C57.6525 50.2388 57.6566 50.1867 57.6566 50.1146C57.6566 49.7619 57.5157 49.4774 57.2341 49.261C56.9604 49.0446 56.6063 48.9364 56.1717 48.9364C55.7372 48.9364 55.375 49.0406 55.0853 49.249C54.8036 49.4493 54.6628 49.7218 54.6628 50.0665C54.6628 50.2989 54.7312 50.4953 54.868 50.6556C55.0048 50.8079 55.1738 50.9321 55.375 51.0283C55.5762 51.1245 55.8458 51.2367 56.1838 51.3649C56.5862 51.5172 56.9081 51.6575 57.1496 51.7857C57.399 51.9139 57.6083 52.0903 57.7773 52.3147C57.9463 52.5391 58.0308 52.8196 58.0308 53.1563C58.0308 53.7253 57.7934 54.1782 57.3186 54.5148C56.8437 54.8514 56.2281 55.0197 55.4716 55.0197Z" fill="black"/>
<path d="M69.5554 48.6358C69.4669 49.1568 69.2536 49.5816 68.9156 49.9102C68.5776 50.2308 68.1752 50.4552 67.7085 50.5835C68.1109 50.6556 68.4368 50.852 68.6863 51.1726C68.9438 51.4851 69.0726 51.8618 69.0726 52.3027C69.0726 52.4149 69.0605 52.5391 69.0364 52.6754C68.9639 53.1002 68.7909 53.4849 68.5173 53.8295C68.2436 54.1661 67.8815 54.4346 67.4308 54.635C66.9882 54.8274 66.4812 54.9236 65.9098 54.9236H62.9885L64.4733 46.5199H67.3222C68.0706 46.5199 68.634 46.6762 69.0122 46.9888C69.3985 47.3013 69.5916 47.7141 69.5916 48.2271C69.5916 48.3553 69.5796 48.4916 69.5554 48.6358ZM68.6863 48.72C68.7024 48.6478 68.7104 48.5437 68.7104 48.4074C68.7104 48.0307 68.5776 47.7341 68.3121 47.5177C68.0465 47.3013 67.6521 47.1931 67.129 47.1931H65.1976L64.6664 50.2468H66.6341C67.1974 50.2468 67.6562 50.1106 68.0103 49.8381C68.3724 49.5656 68.5978 49.1929 68.6863 48.72ZM68.2034 52.5912C68.2276 52.471 68.2396 52.3588 68.2396 52.2546C68.2396 51.8458 68.0867 51.5252 67.7809 51.2928C67.4751 51.0523 67.0526 50.9321 66.5134 50.9321H64.5336L63.9542 54.2383H65.9702C66.5818 54.2383 67.0848 54.094 67.4791 53.8055C67.8735 53.5089 68.1149 53.1042 68.2034 52.5912Z" fill="black"/>
<path d="M77.0601 48.3593L75.9013 54.9236H75.0562L75.2615 53.7694C74.9878 54.1782 74.6337 54.4907 74.1991 54.7071C73.7646 54.9236 73.2978 55.0318 72.7988 55.0318C72.1228 55.0318 71.5796 54.8514 71.1692 54.4907C70.7587 54.1221 70.5535 53.5891 70.5535 52.8918C70.5535 52.6353 70.5736 52.4029 70.6139 52.1945L71.2899 48.3593H72.1228L71.4589 52.0983C71.4267 52.2826 71.4106 52.475 71.4106 52.6754C71.4106 53.2043 71.5555 53.6091 71.8452 53.8896C72.1429 54.1621 72.5534 54.2984 73.0765 54.2984C73.6881 54.2984 74.2152 54.114 74.6579 53.7454C75.1005 53.3687 75.3983 52.8196 75.5512 52.0983L76.2151 48.3593H77.0601Z" fill="black"/>
<path d="M79.6412 47.121C79.4883 47.121 79.3636 47.0769 79.267 46.9888C79.1704 46.8926 79.1221 46.7683 79.1221 46.6161C79.1221 46.4077 79.1945 46.2353 79.3394 46.0991C79.4843 45.9548 79.6573 45.8827 79.8585 45.8827C80.0114 45.8827 80.1321 45.9268 80.2206 46.0149C80.3172 46.1031 80.3655 46.2193 80.3655 46.3636C80.3655 46.572 80.2931 46.7523 80.1482 46.9046C80.0033 47.0489 79.8343 47.121 79.6412 47.121ZM79.8343 48.3593L78.6755 54.9236H77.8305L78.9893 48.3593H79.8343Z" fill="black"/>
<path d="M83.0154 46.027L81.434 54.9236H80.589L82.1704 46.027H83.0154Z" fill="black"/>
<path d="M83.5407 51.6294C83.6614 50.9562 83.9029 50.3671 84.265 49.8621C84.6272 49.3492 85.0738 48.9564 85.605 48.6839C86.1361 48.4034 86.7035 48.2631 87.3071 48.2631C87.8865 48.2631 88.3815 48.4034 88.7919 48.6839C89.2104 48.9644 89.492 49.3291 89.6369 49.778L90.3008 46.027H91.1459L89.5645 54.9236H88.7195L88.985 53.4568C88.6953 53.9137 88.297 54.2904 87.7899 54.5869C87.2829 54.8755 86.7196 55.0197 86.0999 55.0197C85.3032 55.0197 84.6634 54.7833 84.1805 54.3104C83.7057 53.8295 83.4683 53.1843 83.4683 52.3748C83.4683 52.1424 83.4924 51.8939 83.5407 51.6294ZM89.2989 51.6414C89.3391 51.417 89.3592 51.2166 89.3592 51.0403C89.3592 50.4151 89.1701 49.9182 88.7919 49.5495C88.4136 49.1808 87.9227 48.9965 87.3191 48.9965C86.8524 48.9965 86.4138 49.1007 86.0033 49.3091C85.6009 49.5175 85.2589 49.822 84.9772 50.2228C84.6956 50.6155 84.5065 51.0844 84.4099 51.6294C84.3696 51.8699 84.3495 52.0742 84.3495 52.2426C84.3495 52.8757 84.5346 53.3767 84.9048 53.7454C85.2831 54.106 85.774 54.2864 86.3776 54.2864C86.8282 54.2864 87.2588 54.1782 87.6692 53.9618C88.0877 53.7454 88.4378 53.4368 88.7195 53.036C89.0092 52.6353 89.2023 52.1704 89.2989 51.6414Z" fill="black"/>
<path d="M97.7457 55.0077C97.2387 55.0077 96.7921 54.9235 96.4058 54.7552C96.0275 54.5869 95.7338 54.3505 95.5246 54.0459C95.3153 53.7413 95.2107 53.3927 95.2107 53C95.2107 52.8958 95.2147 52.8156 95.2228 52.7595H96.0557C96.0396 53.016 96.0839 53.2645 96.1885 53.5049C96.3012 53.7373 96.4903 53.9337 96.7559 54.094C97.0295 54.2463 97.3796 54.3224 97.8061 54.3224C98.4016 54.3224 98.8765 54.1742 99.2306 53.8776C99.5847 53.581 99.7617 53.1803 99.7617 52.6754C99.7617 52.3708 99.6772 52.1183 99.5082 51.9179C99.3473 51.7096 99.1461 51.5412 98.9046 51.413C98.6632 51.2768 98.3332 51.1245 97.9147 50.9562C97.4238 50.7638 97.0335 50.5875 96.7438 50.4272C96.4541 50.2589 96.2126 50.0304 96.0195 49.7419C95.8344 49.4533 95.7579 49.0847 95.7901 48.6358C95.8062 48.203 95.935 47.8223 96.1764 47.4937C96.4259 47.1571 96.7599 46.8966 97.1784 46.7122C97.6049 46.5199 98.0878 46.4237 98.627 46.4237C99.1581 46.4237 99.6128 46.5159 99.9911 46.7002C100.377 46.8765 100.663 47.121 100.848 47.4336C101.041 47.7462 101.126 48.0908 101.102 48.4675H100.22C100.237 48.2511 100.184 48.0387 100.063 47.8303C99.9508 47.6219 99.7657 47.4536 99.5082 47.3254C99.2587 47.1891 98.9489 47.121 98.5787 47.121C98.0073 47.121 97.5405 47.2613 97.1784 47.5418C96.8162 47.8143 96.6352 48.187 96.6352 48.6599C96.6352 48.9404 96.7156 49.1768 96.8766 49.3692C97.0375 49.5616 97.2347 49.7218 97.4681 49.8501C97.7015 49.9783 98.0234 50.1266 98.4338 50.2949C98.9086 50.4873 99.2909 50.6676 99.5806 50.8359C99.8784 51.0042 100.128 51.2287 100.329 51.5092C100.538 51.7897 100.643 52.1424 100.643 52.5672C100.643 52.6714 100.639 52.7515 100.631 52.8076C100.599 53.2164 100.462 53.5891 100.22 53.9257C99.979 54.2623 99.645 54.5268 99.2185 54.7192C98.8 54.9115 98.3091 55.0077 97.7457 55.0077Z" fill="black"/>
<path d="M104.788 55.0197C104.241 55.0197 103.758 54.9115 103.34 54.6951C102.921 54.4707 102.595 54.1581 102.362 53.7574C102.137 53.3486 102.024 52.8717 102.024 52.3267C102.024 51.5893 102.193 50.9121 102.531 50.2949C102.869 49.6698 103.34 49.1768 103.943 48.8162C104.547 48.4475 105.219 48.2631 105.959 48.2631C106.507 48.2631 106.989 48.3753 107.408 48.5998C107.826 48.8162 108.152 49.1287 108.386 49.5375C108.619 49.9383 108.736 50.4111 108.736 50.9562C108.736 51.7015 108.563 52.3828 108.217 53C107.871 53.6171 107.396 54.11 106.792 54.4787C106.197 54.8394 105.529 55.0197 104.788 55.0197ZM104.885 54.3104C105.456 54.3104 105.967 54.1581 106.418 53.8536C106.877 53.549 107.231 53.1442 107.48 52.6393C107.738 52.1343 107.867 51.5893 107.867 51.0042C107.867 50.347 107.674 49.8461 107.287 49.5014C106.909 49.1568 106.426 48.9845 105.839 48.9845C105.267 48.9845 104.756 49.1368 104.306 49.4413C103.863 49.7459 103.517 50.1506 103.267 50.6556C103.018 51.1605 102.893 51.7055 102.893 52.2906C102.893 52.9399 103.082 53.4408 103.461 53.7934C103.839 54.1381 104.314 54.3104 104.885 54.3104Z" fill="black"/>
<path d="M118.678 48.2391C119.338 48.2391 119.865 48.4194 120.259 48.7801C120.662 49.1408 120.863 49.6698 120.863 50.3671C120.863 50.5835 120.839 50.8199 120.791 51.0764L120.103 54.9236H119.27L119.946 51.1726C119.986 50.9321 120.006 50.7317 120.006 50.5714C120.006 50.0505 119.865 49.6537 119.583 49.3812C119.302 49.1087 118.903 48.9725 118.388 48.9725C117.817 48.9725 117.314 49.1528 116.879 49.5135C116.453 49.8741 116.155 50.3951 115.986 51.0764L115.286 54.9236H114.453L115.129 51.1726C115.169 50.9321 115.189 50.7317 115.189 50.5714C115.189 50.0505 115.049 49.6537 114.767 49.3812C114.485 49.1087 114.091 48.9725 113.584 48.9725C112.972 48.9725 112.445 49.1728 112.002 49.5736C111.56 49.9663 111.266 50.5354 111.121 51.2808L110.481 54.9236H109.636L110.795 48.3593H111.64L111.435 49.5014C111.709 49.0927 112.059 48.7801 112.485 48.5637C112.92 48.3473 113.379 48.2391 113.861 48.2391C114.433 48.2391 114.908 48.3753 115.286 48.6478C115.664 48.9204 115.902 49.3211 115.998 49.8501C116.264 49.3291 116.638 48.9324 117.121 48.6599C117.604 48.3793 118.123 48.2391 118.678 48.2391Z" fill="black"/>
<path d="M126.011 48.2631C126.566 48.2631 127.041 48.3713 127.436 48.5877C127.83 48.7961 128.128 49.0847 128.329 49.4533C128.538 49.822 128.643 50.2428 128.643 50.7157C128.643 50.9321 128.627 51.1245 128.594 51.2928C128.546 51.5332 128.498 51.7496 128.45 51.942H122.981C122.957 52.0943 122.945 52.2385 122.945 52.3748C122.945 52.9919 123.13 53.4688 123.5 53.8055C123.878 54.1421 124.357 54.3104 124.937 54.3104C125.492 54.3104 125.979 54.1782 126.397 53.9137C126.816 53.6492 127.122 53.2925 127.315 52.8437H128.22C127.947 53.4849 127.508 54.0098 126.904 54.4186C126.309 54.8194 125.613 55.0197 124.816 55.0197C123.995 55.0197 123.335 54.7873 122.836 54.3224C122.345 53.8495 122.1 53.2084 122.1 52.3988C122.1 52.1584 122.124 51.9059 122.172 51.6414C122.293 50.9602 122.535 50.363 122.897 49.8501C123.267 49.3371 123.722 48.9444 124.261 48.6719C124.8 48.3994 125.383 48.2631 126.011 48.2631ZM127.725 51.3168C127.766 51.0924 127.786 50.9041 127.786 50.7518C127.786 50.1827 127.605 49.7459 127.242 49.4413C126.88 49.1368 126.418 48.9845 125.854 48.9845C125.444 48.9845 125.049 49.0726 124.671 49.249C124.293 49.4253 123.963 49.6898 123.681 50.0424C123.4 50.3951 123.206 50.8199 123.102 51.3168H127.725Z" fill="black"/>
<path d="M130.889 53.1442C130.865 53.2885 130.853 53.4127 130.853 53.5169C130.853 53.7734 130.921 53.9537 131.058 54.0579C131.203 54.1541 131.436 54.2022 131.758 54.2022H132.531L132.398 54.9236H131.493C130.994 54.9236 130.619 54.8274 130.37 54.635C130.12 54.4427 129.996 54.1261 129.996 53.6852C129.996 53.5089 130.012 53.3286 130.044 53.1442L130.768 49.0686H129.851L129.984 48.3593H130.901L131.191 46.7122H132.036L131.746 48.3593H133.569L133.436 49.0686H131.613L130.889 53.1442Z" fill="black"/>
<path d="M138.113 48.2391C138.773 48.2391 139.304 48.4194 139.707 48.7801C140.109 49.1408 140.31 49.6738 140.31 50.3791C140.31 50.6356 140.29 50.868 140.25 51.0764L139.562 54.9236H138.729L139.393 51.1726C139.425 50.9882 139.441 50.7918 139.441 50.5835C139.441 50.0545 139.296 49.6537 139.006 49.3812C138.717 49.1087 138.31 48.9725 137.787 48.9725C137.151 48.9725 136.608 49.1728 136.158 49.5736C135.707 49.9743 135.413 50.5634 135.276 51.3409V51.3288L134.637 54.9236H133.791L135.373 46.027H136.218L135.602 49.4774C135.884 49.0766 136.246 48.7721 136.689 48.5637C137.131 48.3473 137.606 48.2391 138.113 48.2391Z" fill="black"/>
<path d="M143.241 47.121C143.088 47.121 142.964 47.0769 142.867 46.9888C142.771 46.8926 142.722 46.7683 142.722 46.6161C142.722 46.4077 142.795 46.2353 142.94 46.0991C143.084 45.9548 143.257 45.8827 143.459 45.8827C143.612 45.8827 143.732 45.9268 143.821 46.0149C143.917 46.1031 143.966 46.2193 143.966 46.3636C143.966 46.572 143.893 46.7523 143.748 46.9046C143.603 47.0489 143.434 47.121 143.241 47.121ZM143.434 48.3593L142.276 54.9236H141.431L142.589 48.3593H143.434Z" fill="black"/>
<path d="M148.475 48.2391C149.151 48.2391 149.69 48.4234 150.092 48.7921C150.503 49.1528 150.708 49.6818 150.708 50.3791C150.708 50.6356 150.688 50.868 150.647 51.0764L149.959 54.9236H149.126L149.79 51.1726C149.823 50.9882 149.839 50.7918 149.839 50.5835C149.839 50.0545 149.694 49.6537 149.404 49.3812C149.114 49.1087 148.708 48.9725 148.185 48.9725C147.549 48.9725 147.006 49.1728 146.555 49.5736C146.105 49.9743 145.811 50.5634 145.674 51.3409V51.3048L145.034 54.9236H144.189L145.348 48.3593H146.193L145.988 49.4894C146.269 49.0887 146.628 48.7801 147.062 48.5637C147.497 48.3473 147.968 48.2391 148.475 48.2391Z" fill="black"/>
<path d="M155.776 48.2631C156.395 48.2631 156.906 48.4074 157.309 48.6959C157.719 48.9845 157.985 49.3492 158.105 49.79L158.359 48.3593H159.204L158.021 55.0919C157.916 55.693 157.691 56.226 157.345 56.6908C157.007 57.1557 156.58 57.5124 156.065 57.7608C155.55 58.0173 154.995 58.1456 154.399 58.1456C153.554 58.1456 152.887 57.9452 152.396 57.5444C151.913 57.1437 151.663 56.5987 151.647 55.9094H152.48C152.544 56.3662 152.754 56.7309 153.108 57.0034C153.462 57.2759 153.937 57.4122 154.532 57.4122C155.184 57.4122 155.756 57.2038 156.246 56.787C156.737 56.3783 157.047 55.8132 157.176 55.0919L157.454 53.4688C157.18 53.9177 156.786 54.2904 156.271 54.5869C155.764 54.8755 155.2 55.0197 154.581 55.0197C153.784 55.0197 153.144 54.7833 152.661 54.3104C152.186 53.8295 151.949 53.1843 151.949 52.3748C151.949 52.1424 151.973 51.8939 152.021 51.6294C152.142 50.9562 152.384 50.3671 152.746 49.8621C153.108 49.3492 153.55 48.9564 154.074 48.6839C154.605 48.4034 155.172 48.2631 155.776 48.2631ZM157.78 51.6414C157.82 51.417 157.84 51.2166 157.84 51.0403C157.84 50.4151 157.651 49.9182 157.273 49.5495C156.894 49.1808 156.403 48.9965 155.8 48.9965C155.333 48.9965 154.894 49.1007 154.484 49.3091C154.082 49.5175 153.74 49.822 153.458 50.2228C153.176 50.6155 152.987 51.0844 152.891 51.6294C152.85 51.8699 152.83 52.0742 152.83 52.2426C152.83 52.8757 153.015 53.3767 153.385 53.7454C153.764 54.106 154.255 54.2864 154.858 54.2864C155.309 54.2864 155.739 54.1782 156.15 53.9618C156.568 53.7454 156.918 53.4368 157.2 53.036C157.49 52.6353 157.683 52.1704 157.78 51.6414Z" fill="black"/>
<path d="M168.786 52.9278H164.935L163.848 54.9236H162.955L167.506 46.6281H168.46L170.053 54.9236H169.16L168.786 52.9278ZM168.653 52.2546L167.796 47.674L165.297 52.2546H168.653Z" fill="black"/>
<path d="M180.451 48.2391C181.111 48.2391 181.638 48.4194 182.032 48.7801C182.435 49.1408 182.636 49.6698 182.636 50.3671C182.636 50.5835 182.612 50.8199 182.564 51.0764L181.875 54.9236H181.042L181.718 51.1726C181.759 50.9321 181.779 50.7317 181.779 50.5714C181.779 50.0505 181.638 49.6537 181.356 49.3812C181.075 49.1087 180.676 48.9725 180.161 48.9725C179.59 48.9725 179.087 49.1528 178.652 49.5135C178.226 49.8741 177.928 50.3951 177.759 51.0764L177.059 54.9236H176.226L176.902 51.1726C176.942 50.9321 176.962 50.7317 176.962 50.5714C176.962 50.0505 176.821 49.6537 176.54 49.3812C176.258 49.1087 175.864 48.9725 175.357 48.9725C174.745 48.9725 174.218 49.1728 173.775 49.5736C173.333 49.9663 173.039 50.5354 172.894 51.2808L172.254 54.9236H171.409L172.568 48.3593H173.413L173.208 49.5014C173.482 49.0927 173.832 48.7801 174.258 48.5637C174.693 48.3473 175.152 48.2391 175.634 48.2391C176.206 48.2391 176.681 48.3753 177.059 48.6478C177.437 48.9204 177.674 49.3211 177.771 49.8501C178.037 49.3291 178.411 48.9324 178.894 48.6599C179.377 48.3793 179.896 48.2391 180.451 48.2391Z" fill="black"/>
<path d="M183.945 51.6294C184.066 50.9562 184.307 50.3671 184.67 49.8621C185.032 49.3492 185.474 48.9564 185.997 48.6839C186.529 48.4034 187.096 48.2631 187.7 48.2631C188.327 48.2631 188.842 48.4074 189.245 48.6959C189.647 48.9845 189.909 49.3532 190.029 49.802L190.283 48.3593H191.128L189.969 54.9236H189.124L189.377 53.4688C189.104 53.9177 188.71 54.2904 188.194 54.5869C187.687 54.8755 187.12 55.0197 186.492 55.0197C185.969 55.0197 185.511 54.9115 185.116 54.6951C184.722 54.4787 184.416 54.1742 184.199 53.7814C183.981 53.3807 183.873 52.9118 183.873 52.3748C183.873 52.1424 183.897 51.8939 183.945 51.6294ZM189.703 51.6414C189.744 51.417 189.764 51.2166 189.764 51.0403C189.764 50.4151 189.575 49.9182 189.196 49.5495C188.818 49.1808 188.327 48.9965 187.724 48.9965C187.257 48.9965 186.818 49.1007 186.408 49.3091C186.005 49.5175 185.663 49.822 185.382 50.2228C185.1 50.6155 184.911 51.0844 184.814 51.6294C184.774 51.8699 184.754 52.0742 184.754 52.2426C184.754 52.8757 184.939 53.3767 185.309 53.7454C185.688 54.106 186.178 54.2864 186.782 54.2864C187.233 54.2864 187.663 54.1782 188.074 53.9618C188.492 53.7454 188.842 53.4368 189.124 53.036C189.414 52.6353 189.607 52.1704 189.703 51.6414Z" fill="black"/>
<path d="M192.478 54.2262H195.93L195.797 54.9236H191.379L191.512 54.2262L195.809 49.0566H192.478L192.61 48.3593H196.908L196.775 49.0566L192.478 54.2262Z" fill="black"/>
<path d="M199.037 47.121C198.884 47.121 198.76 47.0769 198.663 46.9888C198.567 46.8926 198.518 46.7683 198.518 46.6161C198.518 46.4077 198.591 46.2353 198.736 46.0991C198.88 45.9548 199.053 45.8827 199.255 45.8827C199.408 45.8827 199.528 45.9268 199.617 46.0149C199.713 46.1031 199.762 46.2193 199.762 46.3636C199.762 46.572 199.689 46.7523 199.544 46.9046C199.399 47.0489 199.23 47.121 199.037 47.121ZM199.23 48.3593L198.072 54.9236H197.227L198.385 48.3593H199.23Z" fill="black"/>
<path d="M204.271 48.2391C204.947 48.2391 205.486 48.4234 205.888 48.7921C206.299 49.1528 206.504 49.6818 206.504 50.3791C206.504 50.6356 206.484 50.868 206.443 51.0764L205.755 54.9236H204.922L205.586 51.1726C205.619 50.9882 205.635 50.7918 205.635 50.5835C205.635 50.0545 205.49 49.6537 205.2 49.3812C204.91 49.1087 204.504 48.9725 203.981 48.9725C203.345 48.9725 202.802 49.1728 202.351 49.5736C201.901 49.9743 201.607 50.5634 201.47 51.3409V51.3048L200.83 54.9236H199.985L201.144 48.3593H201.989L201.784 49.4894C202.065 49.0887 202.424 48.7801 202.858 48.5637C203.293 48.3473 203.764 48.2391 204.271 48.2391Z" fill="black"/>
<path d="M211.572 48.2631C212.191 48.2631 212.702 48.4074 213.105 48.6959C213.515 48.9845 213.781 49.3492 213.902 49.79L214.155 48.3593H215L213.817 55.0919C213.712 55.693 213.487 56.226 213.141 56.6908C212.803 57.1557 212.376 57.5124 211.861 57.7608C211.346 58.0173 210.791 58.1456 210.195 58.1456C209.35 58.1456 208.683 57.9452 208.192 57.5444C207.709 57.1437 207.459 56.5987 207.443 55.9094H208.276C208.34 56.3662 208.55 56.7309 208.904 57.0034C209.258 57.2759 209.733 57.4122 210.328 57.4122C210.98 57.4122 211.552 57.2038 212.042 56.787C212.533 56.3783 212.843 55.8132 212.972 55.0919L213.25 53.4688C212.976 53.9177 212.582 54.2904 212.067 54.5869C211.56 54.8755 210.996 55.0197 210.377 55.0197C209.58 55.0197 208.94 54.7833 208.457 54.3104C207.982 53.8295 207.745 53.1843 207.745 52.3748C207.745 52.1424 207.769 51.8939 207.817 51.6294C207.938 50.9562 208.18 50.3671 208.542 49.8621C208.904 49.3492 209.346 48.9564 209.87 48.6839C210.401 48.4034 210.968 48.2631 211.572 48.2631ZM213.576 51.6414C213.616 51.417 213.636 51.2166 213.636 51.0403C213.636 50.4151 213.447 49.9182 213.069 49.5495C212.69 49.1808 212.199 48.9965 211.596 48.9965C211.129 48.9965 210.69 49.1007 210.28 49.3091C209.878 49.5175 209.536 49.822 209.254 50.2228C208.972 50.6155 208.783 51.0844 208.687 51.6294C208.646 51.8699 208.626 52.0742 208.626 52.2426C208.626 52.8757 208.811 53.3767 209.181 53.7454C209.56 54.106 210.051 54.2864 210.654 54.2864C211.105 54.2864 211.535 54.1782 211.946 53.9618C212.364 53.7454 212.714 53.4368 212.996 53.036C213.286 52.6353 213.479 52.1704 213.576 51.6414Z" fill="black"/>
<defs>
<linearGradient id="paint0_linear_225_2" x1="3.70014" y1="19.7609" x2="13.0099" y2="19.7609" gradientUnits="userSpaceOnUse">
<stop stop-color="#F15A24"/>
<stop offset="1" stop-color="#FBB03B"/>
</linearGradient>
<linearGradient id="paint1_linear_225_2" x1="12.5298" y1="59.1771" x2="13.5619" y2="11.5693" gradientUnits="userSpaceOnUse">
<stop stop-color="#F15A24"/>
<stop offset="1" stop-color="#FBB03B"/>
</linearGradient>
<linearGradient id="paint2_linear_225_2" x1="36.252" y1="51.1657" x2="13.9323" y2="26.7782" gradientUnits="userSpaceOnUse">
<stop stop-color="#F15A24"/>
<stop offset="1" stop-color="#FBB03B"/>
</linearGradient>
<linearGradient id="paint3_linear_225_2" x1="17.8426" y1="54.9579" x2="16.2946" y2="41.1533" gradientUnits="userSpaceOnUse">
<stop stop-color="#F7931E"/>
<stop offset="0.46" stop-color="#F15A24"/>
</linearGradient>
<linearGradient id="paint4_linear_225_2" x1="9.43371" y1="55.1563" x2="7.85523" y2="40.5759" gradientUnits="userSpaceOnUse">
<stop stop-color="#F7931E"/>
<stop offset="1" stop-color="#ED1C24"/>
</linearGradient>
<linearGradient id="paint5_linear_225_2" x1="18.0439" y1="12.5458" x2="10.5612" y2="-0.744061" gradientUnits="userSpaceOnUse">
<stop offset="0.25" stop-color="#FBB03B"/>
<stop offset="1" stop-color="#F7931E"/>
</linearGradient>
<linearGradient id="paint6_linear_225_2" x1="26.2579" y1="51.0673" x2="13.7447" y2="18.9408" gradientUnits="userSpaceOnUse">
<stop stop-color="#F15A24"/>
<stop offset="1" stop-color="#FBB03B"/>
</linearGradient>
</defs>
</svg>